<svg width="221" height="221" viewBox="0 0 221 221" fill="none" xmlns="http://www.w3.org/2000/svg">
<path d="M110.408 220.252V219.752C80.324 219.752 53.048 207.516 33.288 187.756C13.528 167.996 1.29199 140.72 1.29199 110.636C1.29199 80.5506 13.528 53.2746 33.288 33.5147C53.048 13.756 80.324 1.51864 110.408 1.51864C140.493 1.51864 167.769 13.756 187.529 33.5147C207.288 53.2746 219.525 80.5506 219.525 110.636C219.525 140.72 207.288 167.996 187.529 187.756C167.769 207.516 140.493 219.752 110.408 219.752V220.252V220.752C171.128 220.751 220.524 171.356 220.525 110.636C220.524 49.916 171.128 0.519974 110.408 0.518641C49.6893 0.519974 0.293326 49.916 0.291992 110.636C0.293326 171.356 49.6893 220.751 110.408 220.752V220.252Z" fill="#FFF9F9"/>
<path d="M149.69 191.264C149.61 191.264 149.51 191.235 149.368 191.218C149.484 191.096 149.524 191.006 149.586 190.987C151.636 190.292 153.398 189.148 154.956 187.647C157.062 185.612 158.912 183.378 160.444 180.883C160.677 180.5 160.838 180.109 160.766 179.648C160.618 178.7 160.486 177.744 160.353 176.795C160.277 176.277 160.005 175.869 159.585 175.573C159.029 175.195 158.461 174.848 157.9 174.484C156.37 173.487 155.092 172.225 154.03 170.749C153.377 169.844 153.056 168.835 153.078 167.716C153.109 165.992 152.72 164.363 151.997 162.811C151.702 162.172 151.402 161.544 151.126 160.9C150.774 160.084 150.621 159.232 150.676 158.342C150.704 157.845 150.78 157.353 150.997 156.897C151.314 156.242 151.658 155.6 151.96 154.94C152.182 154.467 152.392 153.983 152.55 153.485C152.952 152.237 153.306 150.979 153.702 149.729C154.044 148.639 154.51 147.608 155.226 146.704C155.37 146.523 155.46 146.303 155.594 146.112C155.714 145.935 155.84 145.744 156.113 145.744C156.129 145.744 156.145 145.744 156.161 145.745C156.357 146.063 156.292 146.415 156.238 146.748C156.178 147.135 156.206 147.499 156.266 147.88C156.42 148.943 156.516 150.02 156.874 151.049C157.054 151.569 157.26 152.088 157.484 152.588C158.334 154.487 158.521 156.453 158.149 158.488C158.114 158.66 158.104 158.836 158.053 159.001C157.688 160.189 157.894 161.321 158.39 162.409C158.805 163.304 159.27 164.181 159.754 165.041C160.388 166.163 160.98 167.292 161.35 168.53C161.944 170.504 161.854 172.447 161.177 174.371C161.046 174.748 160.821 175.096 160.642 175.449C160.834 176.669 161.026 177.906 161.22 179.139L161.286 179.177L161.42 179.104C162.604 176.823 163.521 174.432 164.196 171.944C164.722 170.006 165.201 168.052 165.774 166.125C166.228 164.595 166.778 163.082 167.31 161.573C167.422 161.263 167.484 160.971 167.453 160.642C167.297 158.842 167.153 157.04 166.976 155.244C166.95 154.936 166.813 154.63 166.68 154.344C166.245 153.423 165.741 152.531 165.35 151.588C164.981 150.704 164.681 149.784 164.426 148.857C163.976 147.241 164.109 145.625 164.568 144.028C164.824 143.147 165.353 142.405 165.845 141.651C166.405 140.799 166.946 139.933 167.506 139.08C168.044 138.256 168.27 137.32 168.484 136.385C168.728 135.337 168.938 134.279 169.297 133.256C169.922 131.487 170.817 129.919 172.402 128.831C172.55 128.732 172.677 128.613 172.821 128.513C174.604 127.345 176.22 125.967 177.874 124.632C179.421 123.387 181.041 122.239 182.793 121.3C183.2 121.077 183.628 120.881 184.052 120.696C184.234 120.613 184.434 120.533 184.62 120.533C184.625 120.533 184.63 120.533 184.634 120.533C184.637 120.533 184.638 120.533 184.64 120.533C184.796 120.533 184.984 120.629 185.082 120.741L185.041 121.141C184.84 121.46 184.621 121.773 184.374 122.064C183.592 123.011 182.968 124.063 182.385 125.136C182.062 125.725 181.734 126.307 181.422 126.9C180.797 128.069 180.42 129.32 180.124 130.601C179.868 131.712 179.526 132.791 179.049 133.829C178.594 134.827 177.944 135.676 177.218 136.472C176.729 137.011 176.21 137.525 175.712 138.055C174.905 138.9 174.344 139.869 174.201 141.041C173.99 142.783 173.226 144.333 172.524 145.9C171.83 147.445 170.902 148.857 169.977 150.277C169.582 150.889 169.224 151.521 168.896 152.171C168.501 152.949 168.146 153.749 167.792 154.551C167.7 154.757 167.63 154.99 167.632 155.214C167.628 156.787 167.794 158.351 167.862 160.075C168.076 159.808 168.224 159.678 168.3 159.509C168.926 158.224 169.68 157.011 170.492 155.84C170.733 155.497 170.872 155.117 170.941 154.709C171.028 154.221 171.12 153.736 171.188 153.248C171.328 152.229 171.613 151.253 171.949 150.291C172.325 149.22 172.697 148.147 173.269 147.149C174.072 145.757 175.177 144.741 176.688 144.176C177.264 143.968 177.848 143.783 178.433 143.596C179.196 143.353 179.874 142.955 180.444 142.403C181.066 141.792 181.672 141.161 182.258 140.517C183.82 138.795 185.721 137.592 187.88 136.772C188.844 136.408 189.846 136.263 190.878 136.253C190.906 136.253 190.936 136.253 190.964 136.253C192.22 136.253 193.46 136.388 194.692 136.64C195.021 136.707 195.346 136.74 195.666 136.74C196.268 136.74 196.854 136.625 197.436 136.415C198.256 136.113 199.056 135.755 199.873 135.447C201.128 134.983 202.389 134.521 203.657 134.088C204.006 133.967 204.389 133.969 204.844 133.901C204.593 134.524 204.225 134.955 203.814 135.349C203.137 135.991 202.446 136.613 201.752 137.235C201.01 137.895 200.264 138.539 199.51 139.181C198.725 139.844 198.033 140.589 197.476 141.449C196.557 142.853 195.326 143.871 193.802 144.585C192.292 145.299 190.738 145.86 189.092 146.151C188.685 146.225 188.293 146.311 187.89 146.393C186.789 146.631 185.801 147.109 184.897 147.775C183.674 148.691 182.664 149.817 181.73 151.012C181.458 151.353 181.194 151.705 180.913 152.039C179.532 153.712 177.706 154.616 175.626 155.049C175.417 155.094 175.198 155.108 174.98 155.108C174.789 155.108 174.598 155.097 174.412 155.083C174.314 155.076 174.217 155.073 174.121 155.073C173.488 155.073 172.87 155.209 172.253 155.345C172.009 155.401 171.842 155.548 171.704 155.749C170.628 157.304 169.616 158.901 168.796 160.616C167.692 162.915 166.922 165.324 166.261 167.773C166.024 168.675 165.776 169.572 165.484 170.644C165.728 170.428 165.854 170.339 165.948 170.225C166.64 169.387 167.448 168.678 168.337 168.068C168.669 167.848 168.884 167.577 169.04 167.214C169.518 166.121 170.088 165.066 170.761 164.078C170.994 163.745 171.261 163.432 171.53 163.132C172.67 161.89 174.082 161.292 175.733 161.292C175.817 161.292 175.901 161.294 175.985 161.297C176.39 161.308 176.796 161.333 177.204 161.352C177.25 161.354 177.296 161.356 177.341 161.356C177.992 161.356 178.546 161.118 179.02 160.649C179.6 160.071 180.186 159.508 180.773 158.944C181.385 158.347 182.082 157.881 182.876 157.557C183.449 157.317 184.036 157.194 184.657 157.189C184.676 157.189 184.694 157.189 184.713 157.189C185.158 157.189 185.606 157.152 186.049 157.13C187.942 157.04 189.606 156.285 191.22 155.383C191.78 155.069 192.333 154.74 192.905 154.456C194.546 153.644 196.285 153.197 198.125 153.167C198.16 153.165 198.196 153.165 198.23 153.165C198.278 153.165 198.326 153.167 198.376 153.167C198.426 153.167 198.477 153.167 198.528 153.167C198.913 153.167 199.294 153.148 199.661 152.971C199.697 152.953 199.74 152.947 199.785 152.947C199.881 152.947 199.992 152.977 200.085 152.996C200.28 153.04 200.348 153.269 200.208 153.408C200.062 153.545 199.913 153.693 199.737 153.781C198.786 154.243 198.097 154.977 197.494 155.814C197.241 156.169 196.972 156.52 196.742 156.89C196.274 157.648 195.65 158.247 194.908 158.732C194.47 159.018 194.024 159.295 193.576 159.576C192.194 160.439 191.061 161.542 190.222 162.947C189.91 163.472 189.58 163.984 189.13 164.415C188.529 164.984 187.822 165.39 187.065 165.704C185.572 166.324 184.025 166.708 182.4 166.745C181.937 166.754 181.468 166.768 181.006 166.79C180.049 166.829 179.165 167.1 178.366 167.62C178.052 167.828 177.728 168.026 177.422 168.245C176.461 168.935 175.425 169.28 174.289 169.28C174.044 169.28 173.793 169.264 173.538 169.232C172.55 169.111 171.584 168.964 170.677 168.514C170.318 168.333 169.933 168.188 169.592 168.045C169.454 168.078 169.361 168.08 169.289 168.121C167.965 168.881 166.768 169.795 165.822 171.009C165.394 171.564 165.052 172.153 164.85 172.844C164.266 174.865 163.45 176.797 162.542 178.695C162.292 179.218 161.99 179.717 161.714 180.232C161.636 180.388 161.582 180.547 161.512 180.7C161.57 180.756 161.624 180.777 161.674 180.777C161.761 180.777 161.838 180.717 161.916 180.68C162.522 180.404 163.121 180.087 163.742 179.852C164.121 179.706 164.382 179.476 164.629 179.185C165.07 178.678 165.524 178.188 165.985 177.706C167.18 176.459 168.648 175.859 170.365 175.856C170.409 175.856 170.453 175.856 170.498 175.856C170.658 175.856 170.82 175.857 170.981 175.859C171.144 175.86 171.306 175.861 171.469 175.861C171.597 175.861 171.724 175.861 171.852 175.859C173.485 175.83 175.025 175.481 176.405 174.544C176.665 174.364 176.952 174.213 177.221 174.042C178.345 173.356 179.566 173.028 180.878 172.983C180.952 172.981 181.026 172.98 181.1 172.98C181.228 172.98 181.357 172.983 181.485 172.984C181.545 172.987 181.605 172.988 181.665 172.988C182.281 172.988 182.866 172.845 183.437 172.594C184.212 172.251 184.996 171.936 185.778 171.62C187.197 171.052 188.658 170.697 190.194 170.651C190.63 170.642 191.065 170.561 191.498 170.528C191.508 170.526 191.516 170.526 191.524 170.526C191.644 170.526 191.78 170.575 192.04 170.623C191.628 171.066 191.322 171.365 190.92 171.559C190.445 171.799 190.064 172.149 189.704 172.54C188.796 173.525 187.88 174.497 186.944 175.46C186.23 176.192 185.57 176.964 185.028 177.835C184.862 178.106 184.653 178.349 184.437 178.589C183.716 179.411 182.786 179.849 181.72 180.045C180.848 180.2 179.973 180.249 179.093 180.249C178.866 180.249 178.638 180.247 178.412 180.24C177.942 180.229 177.472 180.213 177 180.213C176.86 180.213 176.72 180.214 176.58 180.218C175.782 180.244 175.026 180.438 174.332 180.849C173.952 181.064 173.573 181.278 173.181 181.477C172.048 182.045 170.877 182.342 169.665 182.342C169.149 182.342 168.625 182.288 168.093 182.178C167.325 182.016 166.689 181.618 166.097 181.14C165.593 180.737 165.076 180.372 164.39 180.154C163.224 180.466 162.094 181.009 161.024 181.654C160.79 181.795 160.61 182.054 160.448 182.29C158.705 184.83 156.638 187.066 154.272 189.035C152.942 190.133 151.404 190.806 149.757 191.256C149.737 191.263 149.714 191.264 149.69 191.264Z" fill="#380423"/>
<path d="M83.1944 189.777C83.1931 189.777 83.1904 189.777 83.1878 189.777C81.4811 189.763 79.8224 189.506 78.2558 188.784C75.4651 187.487 72.8958 185.852 70.5624 183.841C70.3438 183.656 70.1037 183.451 69.8424 183.375C68.6424 183.023 67.4117 182.788 66.2051 182.784C65.5971 183.169 65.1904 183.655 64.8064 184.172C64.3557 184.787 63.8437 185.333 63.1411 185.687C62.0491 186.232 60.9211 186.492 59.7638 186.492C59.1971 186.492 58.6237 186.431 58.0437 186.309C57.6144 186.217 57.1931 186.107 56.7704 185.996C56.3677 185.883 55.9624 185.828 55.5571 185.828C55.1838 185.828 54.8091 185.875 54.4358 185.96C53.8398 186.102 53.2544 186.281 52.6704 186.451C51.6037 186.76 50.5318 187.016 49.4211 187.107C49.2611 187.119 49.1024 187.125 48.9451 187.125C48.0437 187.125 47.1958 186.912 46.4224 186.393C46.1531 186.216 45.8878 186.036 45.6584 185.814C44.9118 185.112 44.0771 184.535 43.2011 184.008C42.0491 183.317 40.9158 182.612 39.7851 181.89C39.3384 181.605 38.8798 181.364 38.3584 181.253C37.9211 181.168 37.5477 180.957 37.0371 180.633C37.2931 180.513 37.4104 180.429 37.5358 180.404C37.9638 180.325 38.4051 180.294 38.8291 180.189C39.7358 179.978 40.6438 179.885 41.5571 179.885C42.1518 179.885 42.7477 179.925 43.3451 179.999C44.1837 180.102 45.0211 180.208 45.8584 180.341C46.1158 180.383 46.3704 180.404 46.6238 180.404C47.0344 180.404 47.4411 180.347 47.8451 180.22C48.0411 180.165 48.2371 180.111 48.4304 180.064C49.0251 179.928 49.6157 179.856 50.2051 179.856C50.8851 179.856 51.5624 179.952 52.2371 180.155C52.5411 180.249 52.8571 180.323 53.1558 180.429C53.9638 180.713 54.7731 180.837 55.5838 180.837C56.3518 180.837 57.1211 180.726 57.8931 180.537C58.3731 180.421 58.8491 180.278 59.3291 180.155C59.8864 180.009 60.4331 179.935 60.9704 179.935C62.0344 179.935 63.0571 180.226 64.0371 180.825C64.6064 181.172 65.1704 181.531 65.7264 181.908C66.0398 182.127 66.3504 182.281 66.7531 182.326C67.4144 182.393 68.0731 182.548 68.7318 182.66C68.7971 182.673 68.8664 182.699 68.9331 182.699C69.0024 182.699 69.0691 182.672 69.1264 182.576C69.0198 182.447 68.9264 182.307 68.8117 182.176C68.4131 181.749 67.9931 181.344 67.6184 180.9C66.2558 179.299 64.9718 177.639 63.8918 175.835C63.5198 175.217 63.0384 174.736 62.4824 174.308C61.2584 173.376 59.8678 172.799 58.3931 172.402C58.3678 172.396 58.3411 172.393 58.3117 172.393C58.2504 172.393 58.1771 172.404 58.0811 172.406C57.7864 172.631 57.4531 172.871 57.1518 173.136C56.3904 173.804 55.4931 174.192 54.5691 174.563C53.8838 174.84 53.2038 174.977 52.5238 174.977C51.8718 174.977 51.2198 174.851 50.5624 174.6C50.2104 174.468 49.8464 174.357 49.4891 174.237C48.9638 174.064 48.4318 173.978 47.8944 173.978C47.5078 173.978 47.1171 174.023 46.7251 174.111C46.2744 174.206 45.8171 174.313 45.3664 174.423C44.4358 174.645 43.4998 174.745 42.5598 174.745C41.9051 174.745 41.2478 174.696 40.5891 174.607C39.7771 174.499 38.9904 174.285 38.2638 173.888C37.7198 173.587 37.2678 173.177 36.8331 172.748C35.6638 171.605 34.2851 170.826 32.7291 170.347C32.2238 170.189 31.7224 170.036 31.2264 169.872C30.3838 169.592 29.6278 169.172 28.9811 168.56C28.6651 168.259 28.3158 167.989 27.9798 167.711C27.1824 167.056 26.3291 166.521 25.2918 166.319C25.0998 166.277 24.9171 166.173 24.7424 166.078C24.5717 165.98 24.5771 165.74 24.7544 165.648C24.8664 165.594 24.9998 165.512 25.1158 165.512C25.1304 165.512 25.1438 165.513 25.1584 165.516C25.2718 165.539 25.3824 165.548 25.4918 165.548C25.9038 165.548 26.2931 165.413 26.6944 165.312C27.6411 165.078 28.5917 164.965 29.5424 164.965C30.3837 164.965 31.2264 165.053 32.0691 165.225C32.6958 165.353 33.3144 165.529 33.9358 165.689C35.1478 166.001 36.3638 166.241 37.5984 166.241C38.1878 166.241 38.7824 166.187 39.3811 166.059C39.8331 165.963 40.2944 165.881 40.7411 165.76C41.1251 165.661 41.5064 165.613 41.8918 165.613C42.1131 165.613 42.3344 165.629 42.5584 165.66C43.4078 165.771 44.2011 166.043 44.9451 166.464C45.6571 166.859 46.3677 167.255 47.0757 167.665C47.4637 167.888 47.8598 168 48.2678 168C48.5104 168 48.7584 167.96 49.0117 167.88C49.4011 167.757 49.7877 167.629 50.1757 167.514C50.7784 167.332 51.3704 167.24 51.9504 167.24C52.9918 167.24 53.9944 167.539 54.9518 168.152C55.2878 168.373 55.6277 168.607 55.9371 168.869C56.8411 169.653 57.6598 170.526 58.4024 171.463C58.6464 171.772 58.9238 171.98 59.3011 172.108C60.3158 172.471 61.2784 172.948 62.1624 173.583C62.2811 173.669 62.4251 173.721 62.7158 173.869C62.1611 172.907 61.6918 172.102 61.2318 171.294C59.9664 169.094 58.6078 166.96 56.9518 165.02C55.7211 163.572 54.3344 162.287 52.8984 161.057C52.7198 160.906 52.5291 160.808 52.2931 160.808C52.2824 160.808 52.2731 160.808 52.2624 160.808C51.5358 160.839 50.8091 160.868 50.1091 161.106C49.7264 161.237 49.3251 161.363 48.9264 161.384C48.7064 161.396 48.4878 161.401 48.2691 161.401C46.3931 161.401 44.6264 160.957 43.0464 159.823C42.6891 159.573 42.3438 159.301 41.9931 159.04C40.7864 158.124 39.5197 157.294 38.1037 156.72C37.1637 156.348 36.1971 156.14 35.1918 156.14C35.0811 156.14 34.9691 156.143 34.8571 156.148C34.4464 156.172 34.0451 156.189 33.6331 156.22C33.1984 156.257 32.7651 156.275 32.3331 156.275C31.1091 156.275 29.8944 156.136 28.6798 155.912C27.0238 155.611 25.5744 154.94 24.3264 153.819C23.5691 153.129 22.7078 152.585 21.7798 152.145C20.8878 151.717 20.0011 151.284 19.1158 150.836C18.2851 150.413 17.4584 149.987 16.6397 149.541C16.1424 149.264 15.6757 148.943 15.2744 148.403C15.6784 148.36 16.0131 148.276 16.3411 148.276C16.3837 148.276 16.4264 148.277 16.4691 148.28C17.8064 148.376 19.1437 148.5 20.4757 148.628C21.3437 148.717 22.2091 148.86 23.0798 148.94C23.2544 148.956 23.4264 148.964 23.5984 148.964C24.3544 148.964 25.0824 148.807 25.7904 148.456C26.9424 147.887 28.1331 147.431 29.3771 147.109C30.1277 146.919 30.8811 146.805 31.6424 146.805C31.8971 146.805 32.1517 146.817 32.4091 146.844C34.7051 147.085 36.8518 147.761 38.8011 149.028C39.5318 149.501 40.2784 149.956 41.0371 150.388C41.7291 150.776 42.4878 150.988 43.2851 151.028C43.8984 151.059 44.5118 151.088 45.1211 151.143C46.7264 151.304 48.0544 152.004 49.1864 153.144C49.9944 153.961 50.6278 154.904 51.2664 155.843C51.8358 156.688 52.3611 157.559 52.7571 158.508C52.9478 158.963 53.1611 159.408 53.3691 159.857C53.5398 160.235 53.7718 160.567 54.0918 160.836C55.1771 161.76 56.2144 162.74 57.1491 163.824C57.2664 163.968 57.4424 164.055 57.7158 164.257C57.3424 162.573 57.1038 161.02 56.6984 159.5C56.6424 159.284 56.5144 159.076 56.3731 158.899C55.8264 158.216 55.2784 157.532 54.6971 156.88C54.2144 156.336 53.7064 155.817 53.1691 155.327C51.9118 154.189 50.6531 153.061 49.5878 151.745C48.5078 150.409 47.3744 149.107 46.7251 147.477C46.2864 146.38 45.4958 145.585 44.5011 144.975C43.8838 144.591 43.2517 144.225 42.6397 143.829C41.7357 143.245 40.8891 142.591 40.1944 141.743C39.4678 140.86 38.8624 139.905 38.3304 138.896C37.7171 137.733 37.0331 136.62 36.1304 135.651C35.6758 135.156 35.2118 134.677 34.7478 134.191C33.9104 133.301 33.0384 132.444 32.0397 131.728C31.7277 131.511 31.4358 131.264 31.1598 131.007L31.0171 130.631C31.0851 130.496 31.2451 130.352 31.3971 130.315C31.4704 130.293 31.5504 130.285 31.6331 130.285C31.7544 130.285 31.8811 130.304 32.0011 130.324C32.4584 130.395 32.9224 130.475 33.3731 130.587C35.3064 131.045 37.1678 131.741 38.9811 132.551C40.9211 133.417 42.8358 134.339 44.8584 135.011C45.0224 135.072 45.1744 135.155 45.3437 135.212C47.1544 135.857 48.4197 137.145 49.4771 138.696C50.0837 139.593 50.5598 140.564 51.0624 141.513C51.5078 142.363 51.9664 143.211 52.6958 143.869C53.4558 144.551 54.1998 145.249 54.9584 145.931C55.6278 146.535 56.3291 147.115 56.8011 147.903C57.6531 149.329 58.1944 150.857 58.1717 152.535C58.1624 153.496 58.1077 154.463 57.9771 155.412C57.8397 156.423 57.5811 157.413 57.3958 158.416C57.3398 158.726 57.2851 159.057 57.3397 159.361C57.6264 161.143 57.9491 162.923 58.2571 164.704C58.3118 165.028 58.4464 165.295 58.6344 165.567C59.5331 166.888 60.4518 168.211 61.2811 169.575C62.3278 171.29 63.2891 173.059 64.2944 174.797C65.5824 177.029 67.0797 179.107 68.8077 181.009L68.9558 181.045L69.0104 180.992C68.8824 179.751 68.7518 178.506 68.6251 177.277C68.3624 176.981 68.0558 176.702 67.8318 176.371C66.6864 174.684 66.1037 172.829 66.1731 170.769C66.2157 169.477 66.4984 168.233 66.8238 166.988C67.0718 166.033 67.2984 165.067 67.4704 164.095C67.6717 162.916 67.5824 161.768 66.9264 160.714C66.8344 160.567 66.7798 160.4 66.7011 160.241C65.8224 158.371 65.4997 156.421 65.8371 154.368C65.9264 153.827 65.9931 153.273 66.0331 152.724C66.1171 151.639 65.9357 150.571 65.8117 149.505C65.7717 149.121 65.7064 148.761 65.5491 148.404C65.4131 148.095 65.2584 147.771 65.3678 147.415C65.4304 147.393 65.4877 147.384 65.5424 147.384C65.7357 147.384 65.8757 147.508 66.0091 147.624C66.1877 147.775 66.3304 147.964 66.5158 148.101C67.4398 148.793 68.1544 149.671 68.7624 150.637C69.4638 151.745 70.1291 152.871 70.8371 153.975C71.1171 154.416 71.4424 154.831 71.7797 155.229C72.2384 155.79 72.7357 156.325 73.2104 156.876C73.5371 157.261 73.7358 157.717 73.8904 158.192C74.1691 159.039 74.2397 159.9 74.1077 160.778C74.0051 161.472 73.8771 162.156 73.7544 162.849C73.4518 164.535 73.4918 166.209 73.9624 167.868C74.2704 168.944 74.2171 170.001 73.8171 171.044C73.1678 172.741 72.2544 174.289 71.0318 175.644C70.5811 176.139 70.1197 176.619 69.6784 177.127C69.3491 177.521 69.1891 177.984 69.2491 178.504C69.3624 179.457 69.4784 180.413 69.5784 181.368C69.6264 181.832 69.8824 182.169 70.2051 182.48C72.3251 184.5 74.6824 186.188 77.2411 187.616C79.1291 188.671 81.1251 189.326 83.2838 189.473C83.3504 189.476 83.4118 189.553 83.5558 189.643C83.3864 189.708 83.2878 189.777 83.1944 189.777Z" fill="#380423"/>
<path d="M171.707 102.192C171.707 104.605 171.2 106.859 169.587 108.752C169.28 109.099 169.027 109.499 168.76 109.885C168.173 110.765 167.907 111.712 168.107 112.752C168.413 114.352 168.293 115.952 168.133 117.565C167.867 120.285 166.72 122.432 164.32 123.819C161.733 125.312 159.747 127.539 157.413 129.445C157.44 129.979 157.453 130.499 157.493 131.032C157.76 134.979 157.933 138.952 157.533 142.899C157.173 146.365 156.627 149.819 155.893 153.219C155.147 156.632 154.533 160.059 153.64 163.432C152.547 167.485 152.267 171.605 152.2 175.765C152.107 182.218 152.013 188.659 151.92 195.099C151.893 196.565 151.893 198.045 151.893 199.525C151.907 201.699 151.133 202.872 149.16 203.739C147.373 204.525 145.547 205.072 143.587 205.312C141.12 205.618 138.773 206.472 136.547 207.578C135.107 208.299 133.68 209.059 132.213 209.725C130.573 210.472 128.893 211.165 127.227 211.845C123.667 213.299 119.947 213.592 116.16 213.445C110.587 213.232 105.347 211.645 100.28 209.445C98.8666 208.832 97.5066 208.072 96.2133 207.245C93.2533 205.378 90.1466 203.818 87.0399 202.232C85.1599 201.272 83.1333 200.859 81.0933 200.432C80.64 200.325 80.1733 200.272 79.72 200.165C76.8666 199.472 75.0133 197.459 74.7066 194.592C74.5333 192.912 75.1333 191.406 76.12 190.072C76.6266 189.378 77.2266 188.712 77.8666 188.139C81.1066 185.245 82.4533 181.459 83.0933 177.325C83.6533 173.765 83.32 170.232 82.8266 166.699C82.36 163.445 81.7999 160.206 80.9733 157.018C80.7066 155.978 80.2933 155.072 79.56 154.205C78.92 153.445 78.3466 153.045 77.3733 153.205C75.0266 153.605 73 152.899 71.2266 151.379C70.68 150.912 70.1066 150.685 69.3866 150.819C69.12 150.859 68.8533 150.845 68.5866 150.872C65.3066 151.099 63.0933 149.472 61.4933 146.819C60.9066 145.845 60.5466 144.739 60 143.739C59.5066 142.872 58.92 142.045 58.3333 141.245C57.92 140.699 57.3733 140.419 56.6133 140.365C54.08 140.192 52.1866 138.885 50.9333 136.725C50.2666 135.565 49.7866 134.299 49.28 133.072C48.96 132.325 48.7466 131.552 48.4666 130.792C48.1733 129.952 47.6133 129.352 46.8666 128.819C43.6666 126.499 42.3999 123.232 42.5733 119.365C42.6133 118.512 42.8666 117.659 43.0266 116.792C43.1733 116.072 43.3466 115.352 43.0933 114.512C42.88 114.365 42.6266 114.165 42.3466 113.992C40.92 113.112 40.1466 111.859 39.8266 110.405C39.5466 109.659 39.4133 108.805 39.5066 107.805C39.6799 105.939 39.92 104.085 40.2133 102.259C40.2133 101.539 40.16 100.819 40.0133 100.099C39.9866 99.9386 40.08 99.7386 40.16 99.3253C40.3466 99.672 40.5066 99.912 40.6133 100.125C42.48 90.4853 46.1466 81.5386 51.5733 73.4053C51.8799 71.0853 52.52 68.872 53.4666 66.8453C54.2533 62.8853 55.8666 59.2586 58.3066 56.032C60.2933 53.4053 62.9333 51.5653 65.8933 50.1653C68.6933 48.8453 71.64 47.9653 74.6933 47.4586C75.88 47.2586 77.0933 47.2986 78.3066 47.2053C79.3066 47.1386 80.3066 47.0186 81.3066 46.9653C82.3333 46.912 83.0399 46.4586 83.5733 45.5653C85.9199 41.512 89.44 38.8186 93.6533 36.9653C95.5866 36.1253 97.6133 35.712 99.7066 35.6586C102.68 35.5653 105.627 35.6853 108.507 36.432C109.853 36.7786 111.187 37.2719 112.467 37.8186C114.867 38.8586 117.227 40.0053 119.6 41.0853C120.947 41.712 122.347 42.152 123.84 42.2586C124.107 42.2853 124.373 42.3786 124.627 42.3386C126.64 42.0186 128.653 42.3386 130.653 42.3386C132.707 42.3253 134.613 42.8453 136.533 43.4853C141.84 45.2453 145.907 48.5786 149.053 53.1386C149.813 54.2453 150.573 55.352 151.267 56.4986C152.413 58.3386 153.813 59.9386 155.48 61.3253C156.76 62.4053 157.987 63.5653 159.173 64.7519C161.987 67.5253 163.533 70.992 164.413 74.7786C164.72 76.0853 164.973 77.4053 165.213 78.7253C165.52 80.392 166.147 81.9386 167.147 83.312C167.387 83.6453 167.613 83.9786 167.853 84.2986C170.48 87.8186 171.6 91.8186 171.653 96.1653C171.68 98.1786 171.707 100.179 171.707 102.192Z" fill="#FFF9F9"/>
<path d="M150.466 199.339C150.466 200.792 150.266 201.099 148.92 201.552C147.146 202.139 145.386 202.712 143.493 202.938C140.761 203.259 138.16 204.192 135.693 205.432C133.826 206.352 131.986 207.299 130.106 208.192C127.933 209.232 125.693 210.139 123.32 210.645C121.08 211.125 118.826 211.312 116.533 211.085C114.266 210.872 112 210.712 109.773 210.139C105.16 208.952 100.734 207.312 96.6396 204.765C93.6929 202.938 90.5596 201.365 87.4796 199.765C85.6129 198.806 83.5596 198.432 81.5196 198.018C80.9996 197.912 80.4663 197.806 79.9596 197.659C77.573 196.938 76.5729 194.259 77.9463 192.178C78.3196 191.632 78.7876 191.125 79.2663 190.672C83.333 186.872 84.9596 182.006 85.3863 176.632C85.6796 173.125 85.1596 169.672 84.4796 166.245C83.8129 162.899 83.0796 159.552 81.9729 156.312C81.8929 156.072 81.8929 155.806 81.8129 155.232C82.2663 155.778 82.5196 156.059 82.7463 156.378C84.2263 158.445 85.7063 160.525 87.1996 162.592C88.7996 164.845 90.6263 166.885 92.653 168.752C96.6663 172.445 100.906 175.832 105.506 178.739C107.146 179.778 108.866 180.685 110.613 181.539C112.813 182.605 115.121 183.232 117.6 183.032C118.133 182.992 118.68 183.059 119.2 183.152C122.6 183.778 126.026 183.912 129.428 183.432C137.32 182.339 143.946 178.899 148.746 172.352C149.293 171.618 149.72 170.806 150.2 170.032C150.306 176.459 150.253 182.765 150.44 189.072C150.546 192.485 150.48 195.912 150.466 199.339ZM68.9463 125.019C68.5329 125.619 68.0676 126.205 67.6129 126.779C66.2663 128.472 65.2263 130.325 64.761 132.472C64.693 132.725 64.5596 132.952 64.3063 133.579C62.7196 129.272 63.5596 125.645 65.9196 122.259C66.533 121.392 67.253 120.579 68.0263 119.832C69.253 118.632 69.9863 117.312 69.6396 115.539L69.6796 115.152L69.7996 114.992C70.5863 115.952 70.9463 116.885 70.9996 118.219C71.121 120.725 70.3596 122.979 68.9463 125.019ZM172 96.1653C171.946 91.8186 170.826 87.8186 168.2 84.2986C167.96 83.9786 167.734 83.6453 167.493 83.3119C166.493 81.9386 165.866 80.3919 165.56 78.7253C165.32 77.4053 165.068 76.0853 164.761 74.7786C163.88 70.992 162.333 67.5253 159.52 64.7519C158.333 63.5653 157.106 62.4053 155.826 61.3253C154.16 59.9386 152.761 58.3386 151.613 56.4986C150.92 55.352 150.16 54.2453 149.401 53.1386C146.253 48.5786 142.186 45.2453 136.88 43.4853C134.96 42.8453 133.053 42.3253 131 42.3386C129 42.3386 126.986 42.0186 124.973 42.3386C124.72 42.3786 124.454 42.2853 124.186 42.2586C122.693 42.152 121.293 41.7119 119.946 41.0853C117.573 40.0053 115.213 38.8586 112.813 37.8186C111.533 37.2719 110.2 36.7786 108.853 36.432C105.973 35.6853 103.026 35.5653 100.053 35.6586C97.9596 35.712 95.933 36.1253 93.9996 36.9653C89.7876 38.8186 86.2663 41.512 83.9196 45.5653C83.3863 46.4586 82.6796 46.912 81.653 46.9653C80.653 47.0186 79.653 47.1386 78.653 47.2053C77.4396 47.2986 76.2263 47.2586 75.0396 47.4586C71.9863 47.9653 69.0396 48.8453 66.2396 50.1653C63.2796 51.5653 60.6396 53.4053 58.653 56.032C55.9863 59.5653 54.2929 63.5519 53.6129 67.9519C53.4663 68.9119 53.3596 69.8853 53.2396 70.8453C53.6796 70.6986 53.8929 70.4586 54.0129 70.1786C54.8263 68.2053 55.5996 66.2053 56.4396 64.2186C57.1063 62.6186 57.773 60.992 58.5596 59.4453C59.693 57.2053 61.2929 55.312 63.3463 53.832C68.0396 50.4586 73.293 48.6453 79.0263 48.0986C80.0263 48.0053 81.0263 47.8853 81.9996 47.6719C83.0676 47.4319 83.9996 46.9253 84.5996 45.9253C85.7876 44.0053 87.4543 42.5386 89.2796 41.2719C93.6129 38.2453 98.3463 36.6853 103.693 37.4586C104.094 37.5253 104.493 37.5653 104.893 37.592C107.533 37.7386 110.04 38.3919 112.428 39.5519C114.773 40.6853 117.16 41.7653 119.52 42.8853C121.56 43.8453 123.693 44.3386 125.946 44.2453C126.893 44.2053 127.826 44.2053 128.773 44.2453C130.506 44.3386 132.306 44.2186 133.973 44.632C137.973 45.632 141.773 47.1386 144.734 50.1786C145.813 51.272 146.853 52.4186 147.8 53.632C148.746 54.8453 149.586 56.152 150.44 57.4453C151.653 59.312 153.133 60.9386 154.84 62.3786C156.08 63.4186 157.24 64.5386 158.373 65.6719C160.586 67.8453 161.96 70.4986 162.761 73.4719C162.826 73.6853 162.773 73.9386 162.773 74.2986C161.653 73.4853 160.72 72.7253 159.706 72.0986C158.68 71.472 157.56 71.0053 156.48 70.4586C156 70.2186 155.52 70.0053 155.04 69.7653C152.853 68.6853 150.88 67.3119 149.094 65.6719C147.653 64.3519 146.226 63.032 144.788 61.7253C144.613 61.5653 144.386 61.4586 143.986 61.2186C144.106 61.6186 144.133 61.8053 144.226 61.9519C146.386 65.6453 149.36 68.4853 153.173 70.392C154.8 71.2053 156.466 71.8986 158.121 72.6453C159.346 73.192 160.52 73.832 161.546 74.7253C162.788 75.8053 163.734 77.0186 163.933 78.7519C164.186 80.9253 165.173 82.8319 166.466 84.5919C167.186 85.5653 167.853 86.5786 168.44 87.6186C168.96 88.5386 169.44 89.4986 169.52 90.8453C169 90.2053 168.626 89.7653 168.266 89.3119C166.346 86.8586 164.173 84.6853 161.466 83.0986C161.213 82.952 160.96 82.6453 160.586 83.0719C162.053 84.4453 163.533 85.8186 164.986 87.2053C166.746 88.8719 168.373 90.6453 169.6 92.7653C169.853 93.2186 170.146 93.7119 170.24 94.2186C170.52 95.8586 170.36 97.4986 170 99.3919C169.56 98.9519 169.253 98.6986 169.04 98.3919C168.106 97.0719 167.16 95.7786 166.333 94.4053C165.428 92.9119 164.653 91.3386 163.8 89.8186C163.466 89.2586 163.32 88.552 162.613 88.1653C162.6 88.392 162.546 88.5786 162.586 88.7386C163.428 91.6586 164.613 94.432 166.52 96.832C167.401 97.9253 168.306 99.0186 169.306 100.005C169.986 100.685 170.186 101.419 170.226 102.339C170.333 104.859 169.626 107.179 168.173 109.139C167.133 110.552 167.053 112.072 166.84 113.632C166.746 114.285 166.866 114.979 166.8 115.632C166.693 116.765 166.6 117.912 166.373 119.019C166.106 120.299 165.493 121.432 164.413 122.219C162.293 123.779 160.493 125.685 158.64 127.525C158.373 127.792 158.026 127.979 157.653 128.259C157.48 127.379 157.266 126.659 157.213 125.925C157.133 125.152 156.72 124.419 156.84 123.645C157.666 123.405 158.386 123.259 159.068 123.005C160.428 122.485 161.546 121.645 162.226 120.325C162.333 120.112 162.293 119.805 162.346 119.165C160.626 121.099 159.146 122.765 156.56 122.792C156.333 121.899 156.146 121.059 155.92 120.232C155.693 119.392 155.454 118.552 155.2 117.712C154.933 116.885 154.613 116.072 154.36 115.232C154.121 114.432 153.6 113.685 153.613 112.805C154.92 113.472 156.146 114.152 157.413 114.752C158.586 115.312 159.84 115.525 161.133 115.365C162.04 115.259 162.946 115.085 163.68 114.352C162.04 114.179 160.493 114.125 159 113.832C155.84 113.205 153.32 111.565 151.493 108.872C150.706 107.712 149.826 106.605 148.973 105.485C148.92 105.405 148.734 105.419 148.2 105.299C148.946 107.032 149.454 108.552 150.146 109.979C152.173 114.099 153.64 118.392 154.653 122.859C155.986 128.792 156.506 134.792 156.253 140.845C156.053 145.485 155.32 150.072 154.266 154.579C152.401 162.499 148.826 169.539 143.226 175.525C142.253 176.565 141.186 177.472 139.973 178.178C135.133 181.018 129.933 182.539 124.32 182.725C121.68 182.818 119.106 182.299 116.48 182.272C116.173 182.259 115.826 182.125 115.546 181.978C113.026 180.725 110.466 179.539 108.013 178.152C106.094 177.072 104.266 175.792 102.48 174.499C96.5863 170.232 91.0263 165.606 86.9729 159.418C86.6796 158.978 86.3329 158.552 86.0129 158.125C83.7196 155.125 81.7996 151.885 80.2663 148.459C77.8396 143.005 75.573 137.485 74.121 131.672C73.5463 129.392 72.8663 127.152 72.253 124.885C71.9996 123.912 71.9196 122.939 72.121 121.912C72.5196 119.845 72.4276 117.779 71.8129 115.752C71.5196 114.752 71.6796 113.779 71.9863 112.779C72.7343 110.272 73.253 107.725 73.0943 105.059C73.053 104.285 73.2263 103.445 73.493 102.699C74.5596 99.592 75.1996 98.8453 77.9996 97.0586C78.401 96.8053 78.813 96.5653 79.1996 96.3119C82.3063 94.3253 85.4543 92.3786 88.5063 90.3253C92.5063 87.6319 94.853 83.8586 95.5863 79.0853C95.6796 78.5253 95.8529 77.9786 96.0396 77.2453C96.5596 77.6453 96.9196 77.9386 97.2796 78.2186C98.1729 78.9119 99.013 79.712 99.9863 80.2986C104.788 83.2186 109.8 84.1786 115.08 81.5919C116.761 80.7653 118.428 80.8319 120.146 81.3519C122.16 81.9653 123.96 82.9786 125.693 84.1386C126.693 84.8186 127.666 85.5386 128.666 86.2186C130.121 87.2053 131.693 88.0186 133.428 88.3119C134.586 88.5119 135.586 88.9519 136.586 89.5119C138.16 90.4186 139.8 91.1653 141.666 91.2586C142.666 91.3119 143.413 91.9253 144.04 92.6453C145.08 93.8053 145.826 95.1386 146.373 96.6053C146.826 97.7919 147.293 99.0053 147.973 100.059C148.373 100.685 148.734 101.299 149.013 101.965C149.546 103.285 150.213 104.525 151.106 105.619C152.36 107.165 153.866 108.365 155.761 109.019C156.253 109.179 156.788 109.299 157.32 109.352C158.64 109.472 159.44 108.805 159.866 107.579C159.68 107.539 159.533 107.459 159.428 107.499C156.92 108.312 154.826 107.485 152.933 105.859C151.213 104.379 150.08 102.499 149.266 100.405C148.788 99.1519 148.253 97.9386 147.773 96.6853C147.146 95.0319 146.213 93.5786 144.96 92.3253C144.734 92.1119 144.401 91.8986 144.626 91.3653C145.013 91.3253 145.466 91.2853 145.906 91.2053C146.72 91.0453 147.386 91.3386 147.826 91.9919C148.466 92.9386 149.094 93.8853 149.6 94.8986C150.653 96.912 151.573 99.0053 152.64 101.005C153.24 102.125 153.973 103.192 154.761 104.179C155.826 105.539 157.253 106.405 158.96 106.779C159.52 106.912 160.068 106.859 160.533 106.299C160.094 106.152 159.788 106.045 159.466 105.939C157.173 105.272 155.413 103.885 154.121 101.899C153.121 100.365 151.986 98.8853 151.586 97.0053C151.28 95.5519 150.546 94.2453 149.706 93.032C149.213 92.3253 148.613 91.6853 147.986 90.9119C148.52 90.6853 149 90.4986 149.466 90.2719C150.853 89.5919 152.08 89.9653 153.173 90.9119C153.68 91.3519 154.121 91.8719 154.533 92.3919C155.2 93.2319 155.813 94.1253 156.48 94.9653C156.986 95.6053 157.293 96.3253 157.56 97.0986C158.666 100.299 160.613 102.885 163.506 104.712C163.706 104.832 163.96 104.885 164.186 104.965C163.906 104.272 163.48 103.779 163.04 103.312C162.213 102.432 161.333 101.592 160.546 100.685C159.213 99.1519 158.106 97.4853 157.893 95.3786C157.88 95.2186 157.746 94.9786 157.613 94.9253C156.906 94.6186 156.788 93.8853 156.454 93.3386C155.454 91.6986 154.28 90.2719 152.493 89.4586L152.293 89.1386C152.36 88.9253 152.413 88.6986 152.493 88.4053C150.986 88.3653 149.626 88.8053 148.253 89.0453C146.866 89.2853 145.506 89.6586 144.121 89.8986C142.04 90.2453 140.053 89.8986 138.121 89.0186C138.36 88.4586 138.788 88.4853 139.173 88.432C140.533 88.2586 141.761 87.7519 142.946 87.1253C144.506 86.2986 145.586 85.0853 145.986 83.3119C146.106 82.8053 146.306 82.3253 146.48 81.7919C147.133 81.6453 147.72 81.5519 148.293 81.3919C150.32 80.8453 152.013 81.4986 153.466 82.8586C154.24 83.5786 154.88 84.4586 155.56 85.2986C156.36 86.2853 157.121 87.2986 157.92 88.2986C158.053 88.4586 158.293 88.5386 158.72 88.8053C158.013 85.3919 156.146 83.1253 153.64 81.3119C152.506 80.4986 151.213 80.2053 149.826 80.2586C148.613 80.2986 147.44 80.5253 146.293 80.9653C144.053 81.832 141.8 82.6986 139.56 83.5786C139.493 83.6053 139.466 83.7519 139.373 83.9386C141.24 83.8053 142.84 82.8853 144.573 82.5119C144.586 82.6586 144.626 82.7386 144.6 82.7653C143.133 84.592 141.266 85.8053 138.986 86.4053C135.761 87.2586 132.746 86.6586 129.866 85.0853C128.88 84.5386 127.92 83.9119 126.933 83.3386C124.893 82.1519 122.788 81.1386 120.466 80.632C120.121 80.552 119.666 80.5519 119.428 80.0186C119.853 79.9786 120.226 79.9253 120.6 79.9119C121 79.8853 121.401 79.8853 121.813 79.8853C122.213 79.8853 122.613 79.9119 123.013 79.9253C123.48 79.9519 123.96 79.9653 124.428 80.0186C124.813 80.0719 125.2 80.2186 125.6 80.2586C125.946 80.2986 126.36 80.5119 126.68 80.0719C126.533 79.9119 126.428 79.7386 126.28 79.632C125.653 79.2453 125.026 78.8453 124.373 78.4986C122.653 77.592 120.84 77.2453 118.933 77.8053C117.653 78.1786 116.386 78.632 115.146 79.0986C114.454 79.352 113.8 79.7119 113.146 80.0453C110.773 81.2319 108.28 81.3653 105.693 80.9786C103.04 80.5919 100.693 79.5253 98.5063 78.0186C97.4796 77.3119 96.4276 76.632 95.253 75.8586C95.213 76.2586 95.173 76.5119 95.1596 76.7519C94.7876 81.6186 92.613 85.4586 88.6263 88.232C87.253 89.192 85.7996 90.032 84.3596 90.8986C81.7876 92.472 79.1863 94.0186 76.5996 95.5653C71.213 98.8053 69.5463 103.965 69.0263 110.219C69.4276 109.685 69.6129 109.512 69.7063 109.285C70.1463 108.312 70.5463 107.312 70.9596 106.325C71.0943 106.032 71.1863 105.685 71.653 105.739C71.853 107.152 71.613 108.525 71.333 109.912C71.013 111.525 70.1863 112.779 68.933 113.752C67.9196 114.525 66.8396 115.205 65.7729 115.912C64.8263 116.525 63.8396 117.099 62.893 117.725C59.333 120.112 57.0263 126.259 59.7463 131.245C59.8129 131.392 60.0396 131.445 60.293 131.592C60.293 131.112 60.3463 130.712 60.2796 130.339C60.0396 128.805 60.173 127.272 60.333 125.725C60.6263 122.739 61.9729 120.392 64.4796 118.699C65.8129 117.805 67.133 116.885 68.4663 115.992C68.613 115.885 68.8396 115.899 69.0263 115.859C69.133 117.125 69.0263 117.525 68.1996 118.379C67.5863 119.005 66.933 119.579 66.293 120.179C64.0676 122.285 62.7876 124.899 62.2396 127.872C61.9063 129.699 62.0396 131.499 63.0943 133.112C63.4543 133.672 63.933 134.152 64.3596 134.672C64.773 138.192 65.6796 139.899 67.5063 140.565L67.5729 140.392C67.4009 139.885 67.213 139.392 67.0263 138.885C65.761 135.219 66.121 131.765 68.4276 128.565C69.013 127.752 69.5463 126.899 70.121 126.072C70.293 125.819 70.4009 125.445 70.8796 125.565C70.9729 126.832 70.853 128.165 71.1996 129.352C71.6263 130.845 71.3063 132.112 70.7996 133.432C70.613 133.939 70.4396 134.445 70.2796 134.952C69.5463 137.432 69.2663 139.952 69.7463 142.512C70.2129 145.019 71.1063 147.285 73.2396 148.872C73.4796 149.059 73.7463 149.365 74.0129 149.005C73.3463 147.659 72.653 146.365 72.0263 145.032C70.7463 142.245 70.5863 139.325 71.1596 136.365C71.4276 134.979 71.8263 133.632 72.1996 132.272C72.253 132.072 72.4663 131.925 72.7343 131.605C73.0396 132.792 73.2529 133.765 73.5463 134.725C74.0529 136.339 74.2396 137.979 74.2396 139.685C74.2396 140.872 74.413 142.099 74.693 143.259C75.0943 144.885 75.7996 146.392 77.0943 147.579C76.573 145.699 75.6396 143.939 75.5596 141.939C76.6263 144.032 77.5329 146.192 78.3463 148.392C78.6529 149.192 78.4663 149.965 78.121 150.712C75.933 151.285 73.9863 150.912 72.3196 149.352C72.173 149.219 71.9996 149.112 71.8396 148.992C71.2529 148.592 70.5996 148.472 69.9196 148.592C69.4543 148.672 68.9996 148.805 68.533 148.885C66.8263 149.205 65.3463 148.672 64.0943 147.525C63.613 147.072 63.1996 146.539 62.8129 145.992C62.3863 145.392 62.0396 144.725 61.653 144.099C61.213 143.419 60.7996 142.725 60.3196 142.099C59.8796 141.525 59.3729 141.019 58.9463 140.552C59.1729 139.792 60.2396 140.165 60.2263 139.179C59.333 139.032 58.413 138.779 57.493 138.739C54.813 138.645 52.9596 137.312 51.7063 135.019C51.5863 134.779 51.4396 134.552 51.3063 134.312C49.3063 130.685 49.2396 129.872 50.6263 125.979C51.0396 124.845 51.4663 123.712 51.8396 122.565C51.9729 122.152 51.9729 121.699 52.0796 120.992C49.6929 123.072 49.4543 125.832 48.7196 128.352C47.893 128.005 47.893 127.392 48.0263 126.805C48.401 125.179 48.853 123.565 49.2663 121.939C49.3863 121.512 49.5063 121.085 49.6396 120.645C47.9063 122.165 47.6663 124.325 47.0943 126.392C45.9196 125.765 45.693 124.845 46.053 123.805C46.5863 122.285 47.2529 120.819 47.8129 119.312C47.9729 118.912 48.4129 118.539 48.0796 117.979C46.6529 119.579 45.973 121.525 45.333 123.565C45.121 123.405 44.8929 123.312 44.8396 123.152C44.2663 121.779 43.9463 120.352 44.0796 118.845C44.1996 117.579 44.2663 116.299 44.3729 115.032L44.5596 114.725C44.853 114.485 45.373 114.805 45.5996 114.205C45.013 113.605 44.2663 113.192 43.533 112.752C42.2796 112.032 41.5863 110.979 41.3063 109.565C41.0796 108.419 41.0943 107.285 41.293 106.165C41.6396 104.205 41.3463 102.285 41.0263 100.365C40.973 100.072 40.7463 99.8053 40.5063 99.3253C40.4276 99.7386 40.333 99.9386 40.3596 100.099C40.813 102.392 40.5063 104.645 40.0676 106.885C39.933 107.539 39.9329 108.232 39.9729 108.899C40.0676 111.019 40.7876 112.819 42.693 113.992C42.973 114.165 43.2263 114.365 43.4396 114.512C43.6929 115.352 43.5196 116.072 43.3729 116.792C43.2129 117.659 42.9596 118.512 42.9196 119.365C42.7463 123.232 44.0129 126.499 47.2129 128.819C47.9596 129.352 48.5196 129.952 48.8129 130.792C49.0943 131.552 49.3063 132.325 49.6263 133.072C50.133 134.299 50.6129 135.565 51.2796 136.725C52.5329 138.885 54.4276 140.192 56.9596 140.365C57.7196 140.419 58.2663 140.699 58.6796 141.245C59.2663 142.045 59.8529 142.872 60.3463 143.739C60.8929 144.739 61.2529 145.845 61.8396 146.819C63.4396 149.472 65.653 151.099 68.933 150.872C69.1996 150.845 69.4663 150.859 69.7343 150.819C70.4543 150.685 71.0263 150.912 71.5729 151.379C73.3463 152.899 75.373 153.605 77.7196 153.205C78.693 153.045 79.2663 153.445 79.9063 154.205C80.6396 155.072 81.053 155.978 81.3196 157.018C82.1463 160.206 82.7063 163.445 83.1729 166.699C83.6663 170.232 83.9996 173.765 83.4396 177.325C82.7996 181.459 81.4543 185.245 78.2129 188.139C77.5729 188.712 76.973 189.378 76.4663 190.072C75.4796 191.406 74.8796 192.912 75.053 194.592C75.3596 197.459 77.213 199.472 80.0676 200.165C80.5196 200.272 80.9863 200.325 81.4396 200.432C83.4796 200.859 85.5063 201.272 87.3863 202.232C90.493 203.818 93.5996 205.378 96.5596 207.245C97.853 208.072 99.213 208.832 100.626 209.445C105.693 211.645 110.933 213.232 116.506 213.445C120.293 213.592 124.013 213.299 127.573 211.845C129.24 211.165 130.92 210.472 132.56 209.725C134.026 209.059 135.454 208.299 136.893 207.578C139.121 206.472 141.466 205.618 143.933 205.312C145.893 205.072 147.72 204.525 149.506 203.739C151.48 202.872 152.253 201.699 152.24 199.525C152.24 198.045 152.24 196.565 152.266 195.099C152.36 188.659 152.454 182.218 152.546 175.765C152.613 171.605 152.893 167.485 153.986 163.432C154.88 160.059 155.493 156.632 156.24 153.219C156.973 149.819 157.52 146.365 157.88 142.899C158.28 138.952 158.106 134.979 157.84 131.032C157.8 130.499 157.788 129.979 157.761 129.445C160.094 127.539 162.08 125.312 164.666 123.819C167.068 122.432 168.213 120.285 168.48 117.565C168.64 115.952 168.761 114.352 168.454 112.752C168.253 111.712 168.52 110.765 169.106 109.885C169.373 109.499 169.626 109.099 169.933 108.752C171.546 106.859 172.053 104.605 172.053 102.192C172.053 100.179 172.026 98.1786 172 96.1653Z" fill="#FA5858"/>
<path d="M82.6531 57.7386C82.3731 58.3386 82.1211 58.9786 81.7464 59.5253C78.1731 64.6186 73.4931 68.072 67.2131 69.032C64.2931 69.4853 61.4398 70.1786 58.7344 71.3786C58.5598 71.4586 58.3597 71.5253 58.1864 71.6053C53.5597 73.752 50.7877 77.2453 50.3464 82.4186C50.3197 82.6186 50.2531 82.8186 50.1731 83.1786C49.9464 82.9653 49.6797 82.8586 49.6397 82.6853C49.4664 81.832 49.3464 80.9786 49.2264 80.112C49.1731 79.7386 49.1731 79.352 49.1464 79.0186C48.6931 78.872 48.5731 79.1786 48.4011 79.352C47.1998 80.512 46.0531 81.7386 44.8131 82.872C41.8931 85.552 40.7198 88.9253 40.7611 92.7786C40.7878 94.2586 40.9331 95.7253 41.0131 97.192C41.0264 97.6453 41.0131 98.0986 41.0131 98.6586C40.7731 98.4986 40.5597 98.4186 40.4797 98.272C37.7877 92.7253 39.3864 86.3786 42.9331 83.0053C43.7611 82.232 44.6131 81.472 45.5197 80.7786C47.4544 79.2853 49.0944 77.552 50.1998 75.352C50.4398 74.872 50.6931 74.432 51.2397 74.1786C51.6397 73.992 51.9197 73.552 52.2797 73.2586C53.2531 72.432 54.1731 71.5386 55.2397 70.8586C56.0797 70.312 56.6531 69.6453 57.0944 68.8053C57.6664 67.752 58.1998 66.672 58.7611 65.6053C59.2798 64.6053 59.8264 63.6186 60.8664 62.6053C60.3864 65.112 58.9197 66.832 58.0531 68.8186C58.3464 69.2186 58.6798 69.0986 58.8931 68.8453C59.3198 68.3386 59.6931 67.7786 60.0678 67.2186C60.7878 66.0986 61.6664 65.1253 62.7464 64.3386C62.2931 65.792 61.1997 66.8186 60.3731 68.2853C60.9597 68.192 61.2931 68.1653 61.5998 68.0853C63.6131 67.5653 65.6531 67.2586 67.7344 67.0453C68.8531 66.9386 69.9864 66.7253 71.0531 66.3653C75.6531 64.8186 79.3864 62.1253 81.9464 57.9386C82.1211 57.6586 82.2931 57.3653 82.4797 57.0986L82.7731 56.8186C83.0531 57.1653 82.7731 57.4586 82.6531 57.7386Z" fill="#FA5858"/>
<path d="M146.907 58.4053C146.293 58.2053 145.88 57.7919 145.428 57.4453C143.827 56.2186 142.253 54.9653 140.64 53.7519C139.573 52.9519 138.48 52.1653 137.36 51.432C134.88 49.832 132.16 48.9119 129.187 49.0853C124.893 49.3253 120.987 48.0453 117.227 46.1653C115.493 45.2986 113.8 44.3386 112.068 43.4586C110.813 42.8186 109.547 42.2186 108.267 41.632C105.587 40.432 102.788 40.3919 99.9866 40.9786C97.8266 41.4186 95.7347 42.1519 93.7347 43.1119C91.84 44.0186 90.1067 45.1519 88.6667 46.6853C88.2533 47.1119 87.8 47.4986 87.3733 47.9119C87.0266 47.6053 87.2133 47.3786 87.36 47.1653C88.7347 45.2986 90.44 43.792 92.428 42.632C95.24 40.992 98.2533 39.8853 101.455 39.3786C103.653 39.0319 105.853 39.1919 108 39.9253C109.853 40.5519 111.6 41.3919 113.293 42.3519C116.133 43.9786 119.027 45.5386 122.133 46.6586C124.107 47.3786 126.095 47.8186 128.213 47.7253C129.413 47.6853 130.64 47.6853 131.827 47.8453C133.773 48.1119 135.6 48.7653 137.307 49.7119C141.068 51.8053 144.16 54.6319 146.867 57.9253C146.933 58.0053 146.893 58.1653 146.907 58.4053Z" fill="#FA5858"/>
<path d="M141.64 71.8986C141.64 72.0186 141.56 72.152 141.493 72.2586C141.467 72.312 141.373 72.3253 141.227 72.392C140.947 71.9653 140.667 71.5386 140.387 71.0986C139.121 69.0986 137.707 67.2186 135.907 65.6853C132.068 62.392 127.64 61.0986 122.627 62.0853C121.053 62.392 119.493 62.792 117.947 63.2053C115.933 63.7253 113.907 64.2586 111.813 64.1386C106.16 63.792 101.04 62.0586 96.8533 58.0853C96.6133 57.8586 96.3733 57.6186 96.1466 57.3653C95.9733 57.1786 95.8133 56.952 95.6133 56.712C96.0133 56.4186 96.2133 56.7653 96.4013 56.952C99.4933 59.9253 103.2 61.632 107.401 62.392C110.28 62.912 113.133 62.912 115.947 62.032C117.68 61.4853 119.387 60.872 121.133 60.432C127.788 58.7653 133.613 60.312 138.48 65.1653C139.28 65.9653 139.933 66.9253 140.56 67.872C141.36 69.0853 141.613 70.472 141.64 71.8986Z" fill="#FA5858"/>
<path d="M93.9863 61.312L93.9596 61.3787L93.9463 61.3653L93.9863 61.312Z" fill="#FA5858"/>
<path d="M138.761 73.6586C138.333 74.0853 138.08 73.7786 137.827 73.592C136.48 72.592 135.16 71.5786 133.813 70.5786C132.08 69.2986 130.253 68.2186 128.121 67.712C126.707 67.392 125.32 67.3386 123.933 67.632C122.173 67.992 120.428 68.432 118.667 68.8586C118.013 69.0186 117.387 69.232 116.735 69.4053C110.227 71.112 104.28 69.712 98.7732 66.072C97.0945 64.9653 95.5465 63.672 94.1732 62.192C93.9599 61.952 93.7879 61.6986 93.9599 61.3786C95.2666 62.4186 96.5199 63.4986 97.8799 64.472C101.28 66.8986 105.121 68.192 109.267 68.5253C111.428 68.6986 113.533 68.2586 115.6 67.6453C117.773 66.992 119.933 66.272 122.133 65.7386C127.533 64.432 132.2 65.952 136.16 69.712C137.32 70.8186 138.2 72.1653 138.761 73.6586Z" fill="#FA5858"/>
<path d="M82.3334 61.8853C81.9467 63.392 81.068 64.4853 80.1067 65.4987C76.88 68.8453 73.2267 71.4187 68.5467 72.3653C66.1214 72.8453 63.7347 73.5653 61.52 74.712C58.44 76.312 55.8534 78.5253 53.5467 81.072C53.2 81.4586 52.96 81.9653 52.788 82.4586C52.3067 83.752 51.6 84.8586 50.6 85.792C50.0534 86.2853 49.48 86.752 48.9734 87.2987C48.0267 88.3253 47.0267 89.3386 46.1867 90.472C43.3334 94.3253 43.068 98.472 45.068 102.805C45.3067 103.339 45.5734 103.859 45.8267 104.365C45.4934 104.699 45.28 104.485 45.0947 104.312C43.4134 102.899 42.5467 101.085 42.3734 98.8987C42.1214 96.0453 42.8267 93.4453 44.3334 91.0453C45.3067 89.4987 46.5067 88.152 47.8934 86.9653C48.6134 86.352 49.36 85.792 50.08 85.1787C51.0134 84.392 51.788 83.472 52.2 82.312C53.84 77.6587 57.08 74.5653 61.5067 72.592C63.6 71.6453 65.8134 71.0586 68.0534 70.752C73.4547 70.0053 77.68 67.2853 81.1733 63.232C81.56 62.7787 81.9467 62.3386 82.3334 61.8853Z" fill="#FA5858"/>
<path d="M87.333 68.152C87.0944 68.6053 86.813 69.0586 86.6397 69.5386C85.173 73.4453 82.7197 76.5653 79.1863 78.7653C77.0943 80.072 74.8663 81.1786 72.693 82.3653C71.0943 83.2186 69.4543 83.9786 67.9197 84.9386C63.773 87.512 61.213 91.2453 60.253 96.032C60.053 97.072 59.9997 98.152 59.8664 99.2586C58.4664 99.872 57.0397 100.379 55.533 100.699C54.8797 100.832 54.2397 101.019 53.613 101.245C49.3063 102.832 47.573 107.432 49.7877 111.432C50.133 112.059 50.5463 112.645 51.1063 113.512C50.5997 113.379 50.3463 113.365 50.1597 113.245C47.401 111.432 46.8263 108.725 47.7463 105.819C48.693 102.832 50.7197 100.765 53.9063 100.072C55.0797 99.8186 56.2797 99.6053 57.4397 99.3253C58.013 99.192 58.5597 98.9386 59.173 98.7253C59.173 98.0186 59.1997 97.432 59.1597 96.832C58.973 93.952 59.9197 91.432 61.5197 89.0986C63.3863 86.392 65.8263 84.3253 68.7463 82.832C70.413 81.9786 72.1463 81.2586 73.8263 80.432C75.5063 79.6053 77.1997 78.792 78.813 77.8453C81.973 75.992 84.3063 73.3786 85.853 70.0453C86.1063 69.4986 86.3464 68.952 86.6664 68.4453C86.773 68.272 87.1064 68.2453 87.333 68.152Z" fill="#FA5858"/>
<path d="M156.947 75.5786C155.693 76.8586 154.293 76.8586 152.907 76.5786C151.455 76.2986 150.121 75.6586 148.907 74.7919C147.373 73.6719 146.095 72.3119 144.88 70.8719C143.56 69.2719 142.32 67.5919 140.88 66.0853C136.267 61.2453 130.693 58.0719 124.027 57.0853C122.387 56.8453 120.68 57.0319 119.013 57.1386C117.813 57.2186 116.64 57.5519 115.44 57.6853C114.653 57.7653 113.853 57.6986 113.04 57.5519C115.373 57.1253 117.693 56.6186 120.053 56.3253C123.56 55.8853 127 56.392 130.307 57.6453C135.735 59.6853 140.467 62.7386 144.16 67.2853C144.96 68.2719 145.813 69.2319 146.64 70.1919C146.947 70.5386 147.28 70.8853 147.587 71.232C149.613 73.432 152.095 74.7653 155.068 75.1653C155.653 75.232 156.213 75.4186 156.947 75.5786Z" fill="#FA5858"/>
<path d="M91.6397 78.1386C91.533 81.4053 90.2663 84.1253 87.8797 86.2987C86.3863 87.6587 84.7063 88.7653 82.893 89.6586C81.1997 90.472 79.493 91.2586 77.7877 92.0186C76.2397 92.6986 74.7877 93.512 73.4663 94.552C71.893 95.7786 70.7063 97.272 70.213 99.2586C69.613 101.659 68.373 103.712 66.653 105.472C65.9597 106.179 65.1597 106.819 64.333 107.365C62.693 108.445 60.9597 108.445 58.9863 107.499C59.5197 107.272 59.853 107.045 60.213 106.979C64.5863 106.139 66.9463 103.152 68.5063 99.2987L68.5597 99.0987C69.413 95.472 71.7997 93.1653 75.013 91.6053C76.213 91.0186 77.4796 90.5653 78.7063 90.032C80.4276 89.2853 82.1596 88.552 83.8396 87.7386C84.7463 87.312 85.5863 86.7386 86.4277 86.192C88.7063 84.6986 90.1863 82.6053 91.053 80.0453C91.2663 79.4187 91.4543 78.7786 91.6397 78.1386Z" fill="#FA5858"/>
<path d="M84.9464 63.752C85.0397 64.7786 84.6531 65.4186 84.3864 66.0853C83.0677 69.2853 80.8664 71.7786 77.973 73.632C76.013 74.8986 73.933 76.0053 71.853 77.0853C69.121 78.512 66.3464 79.8586 63.813 81.6186C60.8264 83.6986 58.8664 86.4986 57.9331 89.992C57.5997 91.2186 57.4011 92.4853 57.2264 93.7386C57.0944 94.8053 57.121 95.8853 57.053 96.952C57.0397 97.3386 56.9997 97.712 56.973 98.072C56.4277 98.232 56.4664 97.8453 56.4011 97.6453C55.1864 93.872 55.7064 90.232 57.4011 86.7253C58.6531 84.1386 60.5197 82.0586 62.8664 80.4053C64.9597 78.952 67.2397 77.8053 69.5464 76.712C71.8397 75.632 74.1864 74.6186 76.4277 73.4186C80.0797 71.472 82.893 68.6986 84.413 64.752C84.5197 64.472 84.693 64.232 84.9464 63.752Z" fill="#FA5858"/>
<path d="M133.6 111.232C131.173 112.605 128.613 113.525 125.761 113.419C124.761 113.392 123.747 113.432 122.747 113.379C122.227 113.339 121.72 113.179 121.187 113.059C122.973 109.392 130.853 105.792 137.08 107.952C136.16 109.352 134.987 110.432 133.6 111.232ZM137.095 106.485C135.88 106.139 134.613 105.925 133.36 105.779C131.455 105.565 129.64 106.085 127.827 106.565C126.121 107.019 124.573 107.832 123.253 108.992C121.84 110.219 120.627 111.632 120.04 113.592C121.347 113.912 122.547 114.285 123.773 114.499C127.48 115.139 130.96 114.472 134.227 112.632C135.467 111.925 136.507 110.965 137.413 109.899C137.747 109.499 137.987 108.979 138.133 108.485C138.455 107.365 138.213 106.805 137.095 106.485Z" fill="#FA5858"/>
<path d="M132.933 54.712C129.095 55.1253 125.253 55.152 121.413 54.592C119.187 54.2586 117.16 53.4053 115.2 52.3653C113.187 51.2853 111.147 50.312 108.96 49.6186C105.267 48.432 101.507 47.9386 97.6533 48.512C94.8667 48.9253 92.428 50.152 90.24 51.8853C89.68 52.3386 89.1333 52.8053 88.6 53.272C88.2533 52.9253 88.4933 52.6987 88.6267 52.4987C90.3067 49.6587 92.9067 48.112 96.0133 47.3786C98.788 46.712 101.6 46.7653 104.413 47.1786C108.587 47.7786 112.428 49.312 115.987 51.5253C118.068 52.8186 120.293 53.7253 122.707 54.072C124.573 54.3386 126.455 54.4586 128.32 54.5786C129.853 54.672 131.401 54.672 132.933 54.712Z" fill="#FA5858"/>
<path d="M85.1465 126.125C85.9598 124.232 87.4932 122.592 89.5199 121.419C91.2132 120.445 93.0679 119.885 94.9599 119.459C95.7999 119.272 96.6665 119.165 97.5332 119.072C98.4132 118.979 99.2665 119.059 99.8265 119.872C96.9999 124.179 89.7878 127.232 85.1465 126.125ZM99.4545 118.325C97.3065 118.112 95.1732 118.192 93.0679 118.685C89.1332 119.579 86.1332 121.765 83.9865 125.152C83.6399 125.699 83.1865 126.259 83.6132 127.032C84.3065 127.085 85.0532 127.059 85.7612 127.205C87.8532 127.659 89.9065 127.312 91.9332 126.859C95.4665 126.085 98.2532 124.032 100.64 121.392C101.068 120.912 101.307 120.272 101.6 119.752C100.735 118.539 100.613 118.445 99.4545 118.325Z" fill="#FA5858"/>
<path d="M142.56 151.285C142.106 151.899 141.52 152.339 140.773 152.512C139.666 152.779 138.573 153.045 137.454 153.245C136.466 153.405 135.466 153.512 134.466 153.605C132.893 153.752 131.48 154.299 130.226 155.259C129.853 155.552 129.454 155.792 129.053 156.032C127.788 156.819 126.44 157.365 124.92 157.445C123.72 157.512 122.52 157.645 121.346 157.899C119.226 158.352 117.306 159.285 115.546 160.565C114.906 161.045 114.253 161.525 113.56 161.925C112.68 162.445 112.428 162.352 111.333 161.445C112.36 160.806 113.293 160.285 114.146 159.659C116.506 157.925 119.121 156.806 122.026 156.365C122.813 156.245 123.626 156.192 124.428 156.219C125.826 156.285 127.053 155.872 128.226 155.152C128.506 154.978 128.813 154.819 129.068 154.592C130.96 152.899 133.32 152.352 135.734 152.179C137.973 152.019 140.08 151.472 142.186 150.779C142.293 150.739 142.413 150.765 142.6 150.765C142.586 150.939 142.64 151.165 142.56 151.285Z" fill="#FA5858"/>
<path d="M143.547 99.1653C143.107 99.392 142.92 99.552 142.735 99.5786C140.707 99.7786 138.72 99.3519 136.735 99.0853C134.788 98.8186 132.853 98.8053 130.92 99.0719C129.121 99.3119 127.32 99.4986 125.587 100.045C122.533 101.019 119.866 102.659 117.506 104.792C116.413 105.779 115.56 106.952 114.96 108.632C114.613 107.579 114.933 106.992 115.213 106.405C115.987 104.805 117.133 103.499 118.506 102.392C121.92 99.6053 125.813 97.9653 130.24 97.6719C131.72 97.5786 133.187 97.3786 134.653 97.4053C137.068 97.4586 139.466 97.792 141.773 98.512C142.28 98.672 142.773 98.8853 143.547 99.1653Z" fill="#FA5858"/>
<path d="M89.0946 71.5919C88.2266 74.1253 86.7466 76.3119 84.8932 78.2719C82.6666 80.6186 80.1332 82.5786 77.4279 84.3519C75.8532 85.3653 74.2932 86.4053 72.7732 87.512C69.3332 90.0586 66.5732 93.2186 64.4932 96.9653C64.3466 97.2586 64.1599 97.5253 63.7732 98.1386C63.7612 97.4986 63.6932 97.2186 63.7612 96.9653C64.5199 94.3386 65.9199 92.0853 67.8266 90.1253C69.9466 87.9653 72.3332 86.1386 74.9199 84.5519C76.1732 83.7786 77.4666 83.0586 78.7066 82.2719C81.4399 80.5386 83.9332 78.5119 85.9866 75.9919C87.1066 74.5919 88.0679 73.0586 89.0946 71.5919Z" fill="#FA5858"/>
<path d="M104.213 113.965C103.761 113.939 103.573 113.992 103.467 113.912C100.293 111.939 96.7732 111.632 93.1866 111.859C91.5999 111.965 89.9866 112.245 88.4546 112.672C86.0399 113.352 83.8666 114.565 81.9732 116.219C80.7612 117.272 79.5999 118.392 78.4132 119.485C78.0399 119.819 77.6666 120.152 77.2666 120.499C77.1866 120.339 77.1213 120.259 77.1333 120.219C80.6266 114.205 85.7733 110.845 92.7999 110.579C94.7466 110.499 96.6799 110.579 98.5999 110.992C100.187 111.339 101.667 111.939 103.027 112.832C103.401 113.072 103.68 113.445 104.213 113.965Z" fill="#FA5858"/>
<path d="M131.586 140.539C130.906 141.179 130.2 141.805 129.428 142.325C128.68 142.832 128.133 143.405 127.8 144.272C127.346 145.419 126.506 146.272 125.506 146.992C123.933 148.125 122.2 148.419 120.346 147.992C119.186 147.712 118.04 147.325 116.906 146.965C116.734 146.912 116.6 146.739 116.333 146.512C116.8 146.512 117.133 146.472 117.44 146.525C118.293 146.659 119.146 146.832 120 146.965C122.52 147.379 124.44 146.392 125.866 144.365C126.6 143.339 127.28 142.285 128.013 141.205C128.346 141.405 128.56 141.539 128.906 141.752C129.454 141.139 130.094 140.539 130.6 139.859C131.28 138.952 131.226 138.205 130.506 137.312C130.173 136.899 129.773 136.539 129.428 136.125C129.28 135.952 129.173 135.739 128.92 135.339C130.653 135.579 131.746 136.245 132.226 137.765C132.546 138.819 132.386 139.765 131.586 140.539Z" fill="#FA5858"/>
<path d="M109.92 72.792C108.693 73.6053 107.48 73.9653 106.186 73.7653C104.8 73.552 103.428 73.272 102.121 72.712C98.6129 71.2053 93.9862 68.432 91.5596 64.192C92.1729 64.192 92.4276 64.6053 92.6929 64.9253C95.0942 67.7653 98.1996 69.5787 101.546 71.0587C103.853 72.072 106.28 72.4453 108.773 72.592C109.106 72.6053 109.44 72.6453 109.761 72.6853L109.92 72.792Z" fill="#FA5858"/>
<path d="M100.133 117.672C99.4931 117.619 99.0798 117.299 98.6131 117.099C95.7998 115.925 92.9064 115.672 89.9864 116.605C88.0131 117.219 86.4011 118.405 85.0678 119.965C84.3198 120.819 83.6664 121.765 82.9731 122.672C82.6664 123.072 82.3598 123.459 81.9331 124.019C82.6531 120.032 85.9064 116.619 89.7344 115.405C93.0131 114.365 98.5998 115.525 100.133 117.672Z" fill="#FA5858"/>
<path d="M136.133 160.392C135.573 160.859 135.053 161.365 134.455 161.765C131.095 163.992 127.44 165.325 123.36 165.339C121.813 165.339 120.32 165.059 118.92 164.352C118.867 163.978 119.095 163.859 119.373 163.925C123.28 164.832 126.92 163.965 130.455 162.312C131.907 161.632 133.373 160.978 134.84 160.339C135.2 160.192 135.587 160.139 135.96 160.032C136.013 160.152 136.08 160.272 136.133 160.392Z" fill="#FA5858"/>
<path d="M134.053 79.0987C134.068 79.152 134.013 79.2186 133.947 79.4186C133.693 79.192 133.455 79.032 133.253 78.8186C132.32 77.8586 131.413 76.8586 130.455 75.9253C128.053 73.6053 125.213 72.4853 121.84 73.032C119.867 73.352 117.893 73.7653 115.933 74.1386C115.547 74.2053 115.147 74.2186 114.761 74.272L114.707 74.072C114.973 73.9253 115.227 73.712 115.507 73.6453C117.653 73.1253 119.8 72.592 121.96 72.1653C127.32 71.1387 132.587 74.872 134.053 79.0987Z" fill="#FA5858"/>
<path d="M54.5866 125.645C53.7733 127.859 53.4666 130.179 53.6266 132.539C53.7346 134.192 54.0679 135.752 55.7346 136.699C55.4279 136.672 55.0799 136.712 54.8266 136.592C54.0679 136.205 53.5733 135.552 53.3333 134.779C53.0799 134.019 52.8799 133.232 52.8132 132.445C52.4399 128.672 53.2132 125.125 55.0399 121.819C55.7066 120.619 56.3332 119.379 57.4132 118.312C57.4932 119.152 57.0266 119.672 56.7879 120.272C56.0533 122.059 55.2533 123.832 54.5866 125.645Z" fill="#FA5858"/>
<path d="M75.6933 51.3653C75.2133 52.1653 74.5733 52.3253 73.96 52.5253C73.1333 52.7919 72.2933 53.032 71.4547 53.2453C67.72 54.192 64.6267 56.2319 61.96 58.9386C61.08 59.8453 60.28 60.8453 59.4667 61.8053C59.2267 62.0719 58.9867 62.2186 58.6667 62.0719H58.6533C61.44 56.8319 65.8666 53.7919 71.5466 52.4586C72.2666 52.2853 72.9867 52.1386 73.6933 51.9653C74.3067 51.8053 74.92 51.592 75.6933 51.3653Z" fill="#FA5858"/>
<path d="M79.0677 53.4586C75.6131 58.392 69.0797 63.072 64.5464 63.7653C64.8397 63.432 64.9997 63.192 65.2131 63.0453C66.1211 62.4853 67.0264 61.912 67.973 61.4186C71.6264 59.5386 74.973 57.272 77.773 54.2186C78.0944 53.872 78.3864 53.352 79.0677 53.4586Z" fill="#FA5858"/>
<path d="M154.373 80.712C153.893 80.5786 153.613 80.5386 153.36 80.4186C152.121 79.7786 150.907 79.072 149.64 78.4586C147.587 77.472 145.44 77.192 143.2 77.792C142.627 77.952 142.04 78.112 141.455 78.2186C140.88 78.3253 140.293 78.3653 139.707 78.432C145.6 75.2453 150.547 76.3253 154.373 80.712Z" fill="#FA5858"/>
<path d="M80.413 55.2587C80.413 56.152 79.853 56.7387 79.3197 57.2987C76.9063 59.872 74.013 61.8053 70.893 63.4053C70.0263 63.8587 69.0943 64.192 67.6396 64.232C68.373 63.7253 68.7196 63.432 69.1063 63.2053C70.3863 62.472 71.693 61.792 72.973 61.0587C75.7196 59.4853 78.333 57.7387 80.413 55.2587Z" fill="#FA5858"/>
<path d="M137.68 104.139C136.761 104.085 136.2 104.085 135.64 104.005C134.92 103.912 134.186 103.779 133.48 103.632C130.04 102.899 126.84 103.565 123.788 105.165C123.734 105.192 123.666 105.179 123.52 105.192C123.44 104.819 123.746 104.685 123.973 104.525C125.6 103.365 127.48 102.859 129.401 102.632C131.96 102.312 134.48 102.605 136.88 103.619C137.053 103.685 137.2 103.819 137.68 104.139Z" fill="#FA5858"/>
<path d="M97.9596 126.392C96.6929 128.499 94.8396 129.659 92.4543 129.952C90.7996 130.152 89.1463 130.325 87.0796 130.299C87.6129 129.925 87.8129 129.672 88.0529 129.619C89.1063 129.432 90.1596 129.245 91.2263 129.179C92.7343 129.085 94.0796 128.579 95.3729 127.845C96.2396 127.365 97.0943 126.885 97.9596 126.392Z" fill="#FA5858"/>
<path d="M113.573 140.205C113.213 139.885 112.973 139.752 112.88 139.565C112.626 138.952 112.36 138.325 112.226 137.672C111.813 135.632 111 133.725 110.186 131.819C109.853 131.032 109.428 130.272 109.454 129.352C109.586 129.419 109.746 129.445 109.788 129.525C110.734 131.432 111.693 133.339 112.573 135.299C113.226 136.765 113.6 138.312 113.573 140.205Z" fill="#FA5858"/>
<path d="M123.36 153.525C123.413 153.859 123.213 153.992 122.92 154.045L122.72 154.072C119.373 154.192 116.788 155.806 114.627 158.245C114.413 158.485 114.187 158.725 113.96 158.978C115.653 154.939 119.667 152.712 123.36 153.525Z" fill="#FA5858"/>
<path d="M46.1864 112.112C44.8397 112.459 44.0397 112.005 43.4011 111.152C42.5197 110.005 42.121 108.659 41.9997 107.245C41.8797 105.792 42.0797 104.365 42.653 102.952C42.6797 103.579 42.7064 104.192 42.7344 104.819C42.7611 105.485 42.7197 106.152 42.7997 106.805C43.013 108.592 43.6797 110.152 45.1997 111.245C45.5064 111.459 45.761 111.739 46.1864 112.112Z" fill="#FA5858"/>
<path d="M49.2266 90.8186C47.1212 93.8053 46.4132 97.1386 46.7199 100.739C46.7612 101.272 46.7879 101.792 46.8132 102.325C46.8132 102.365 46.7346 102.419 46.5999 102.552C45.6666 100.859 45.7066 99.072 45.9599 97.312C46.3466 94.6053 47.4132 92.192 49.2266 90.0986C49.5732 90.4053 49.3599 90.6186 49.2266 90.8186Z" fill="#FA5858"/>
<path d="M135.547 164.325C134.8 165.112 133.813 165.352 132.893 165.699C132.027 166.032 131.095 166.218 130.24 166.578C128.6 167.285 126.987 168.059 125.32 168.818C125.095 168.659 125.2 168.406 125.401 168.232C125.747 167.925 126.121 167.632 126.52 167.406C129.2 165.885 132.053 164.818 135.095 164.218C135.2 164.192 135.347 164.272 135.547 164.325Z" fill="#FA5858"/>
<path d="M137.773 149.299C137.493 149.832 137.107 149.939 136.68 150.005C135.095 150.259 133.507 150.525 131.92 150.765C130.373 151.005 128.947 151.512 127.387 152.179C127.533 151.979 127.64 151.725 127.827 151.605C128.387 151.232 128.933 150.805 129.547 150.592C132.16 149.725 134.84 149.139 137.773 149.299Z" fill="#FA5858"/>
<path d="M108.454 55.3653C108.573 55.4187 108.64 55.6053 108.734 55.7386C108.373 55.6986 107.986 55.6987 107.64 55.5787C104.761 54.6187 101.813 54.232 98.773 54.472C98.401 54.4986 98.0397 54.4187 97.333 54.3787C97.853 54.0987 98.0676 53.8987 98.3063 53.8587C101.84 53.312 105.226 53.8453 108.454 55.3653Z" fill="#FA5858"/>
<path d="M108.813 55.752L108.773 55.8053L108.734 55.7386L108.813 55.752Z" fill="#FA5858"/>
<path d="M114.813 147.005C113.933 147.672 113.226 147.659 112.52 147.379C111.053 146.779 110.121 145.792 109.893 144.152C109.773 143.232 109.96 142.379 110.413 141.525C110.506 142.219 110.64 142.912 110.693 143.619C110.813 145.072 111.666 145.899 112.933 146.379C113.493 146.592 114.068 146.752 114.813 147.005Z" fill="#FA5858"/>
<path d="M137.867 111.619C136.107 114.552 133.573 115.699 130.707 116.392C130.693 116.192 130.653 115.992 130.68 115.979C133.133 115.019 135.333 113.672 137.213 111.805C137.28 111.739 137.44 111.739 137.867 111.619Z" fill="#FA5858"/>
<path d="M53.8666 105.232C53.8799 105.392 53.9332 105.579 53.8532 105.699C52.4399 107.739 52.1066 109.965 52.6932 112.365C52.7346 112.485 52.6932 112.632 52.6666 112.885C52.5066 112.765 52.3465 112.712 52.2799 112.605C51.1212 110.232 51.8266 106.965 53.8666 105.232Z" fill="#FA5858"/>
<path d="M53.9062 105.205L53.8662 105.232V105.152L53.9062 105.205Z" fill="#FA5858"/>
<path d="M121.853 107.032C120.773 109.125 119.867 110.885 118.947 112.645C118.907 112.725 118.747 112.739 118.533 112.819C118.653 111.205 119.387 109.859 120.068 108.499C120.36 107.899 120.747 107.352 121.853 107.032Z" fill="#FA5858"/>
<path d="M65.5731 146.979C63.6265 145.792 63.1598 143.872 62.9731 141.725C63.2131 141.805 63.4012 141.819 63.4278 141.885C64.1598 143.579 64.8665 145.285 65.5731 146.979Z" fill="#FA5858"/>
<path d="M156.48 67.272C154.653 66.992 152.747 65.8186 151.227 63.912C153.04 64.8853 154.813 65.8986 156.48 67.272Z" fill="#FA5858"/>
<path d="M125 135.112C124.213 134.512 123.986 133.912 123.64 133.405C123.226 132.805 122.788 132.219 122.373 131.605C122.013 131.085 121.36 130.779 121.24 129.845C122.96 131.272 124.386 132.672 125 135.112Z" fill="#FA5858"/>
<path d="M106.16 119.645V119.659H106.133L106.16 119.645Z" fill="#FA5858"/>
<path d="M108.24 125.019C107.84 124.499 107.653 124.352 107.586 124.152C107.32 123.339 107.068 122.525 106.813 121.699C106.6 121.019 106.373 120.339 106.16 119.659C106.346 119.685 106.626 119.645 106.653 119.725C107.333 121.285 107.96 122.859 108.24 125.019Z" fill="#FA5858"/>
<path d="M127.213 116.445C125.813 116.805 124.746 116.525 123.734 115.872C124.853 115.885 126 115.619 127.213 116.445Z" fill="#FA5858"/>
<path d="M66.5599 146.392C65.7346 145.885 65.4013 145.125 65.2666 143.859C66.2533 144.672 66.4399 145.499 66.5599 146.392Z" fill="#FA5858"/>
<path d="M125.146 149.539C124.293 150.779 124.04 150.819 122.428 149.859C123.173 149.859 123.546 149.899 123.92 149.845C124.293 149.792 124.653 149.672 125.146 149.539Z" fill="#FA5858"/>
<path d="M115.706 116.592C115.386 116.019 115.266 115.872 115.24 115.725C115.2 115.352 115.186 114.979 115.173 114.592C115.346 114.632 115.454 114.645 115.466 114.659C115.533 115.152 115.586 115.632 115.706 116.592Z" fill="#FA5858"/>
<path d="M148.506 208.859C148.2 209.018 148.013 209.165 147.813 209.192C147.72 209.192 147.56 208.938 147.546 208.792C147.52 208.485 147.72 208.312 148.026 208.418C148.173 208.459 148.266 208.632 148.506 208.859Z" fill="#FA5858"/>
<path d="M106.133 119.659L106.16 119.632V119.645L106.133 119.659Z" fill="#FA5858"/>
<path d="M106.16 119.632C106.133 119.339 106.121 119.059 106.08 118.619C106.52 119.045 106.401 119.339 106.16 119.632Z" fill="#FA5858"/>
<path d="M53.8662 105.152L53.9595 105.179L53.9062 105.205L53.8662 105.152Z" fill="#FA5858"/>
<path d="M54.4799 105.192L54.3733 105.299C54.2266 105.272 54.0946 105.219 53.96 105.179L54.2399 105.045L54.4799 105.192Z" fill="#FA5858"/>
<path d="M108.813 55.752L108.853 55.792L108.773 55.8053L108.813 55.752Z" fill="#FA5858"/>
<path d="M109.333 56.0053L109.173 56.0853L108.853 55.792L109.146 55.7787L109.333 56.0053Z" fill="#FA5858"/>
<path d="M93.6264 61.032L93.8531 61.272L93.5864 61.2053L93.6264 61.032Z" fill="#FA5858"/>
<path d="M93.9864 61.312L93.9464 61.3653L93.853 61.272L93.9864 61.312Z" fill="#FA5858"/>
<path d="M58.6663 62.072L58.6529 62.0986L58.5996 62.0453L58.6529 62.072H58.6663Z" fill="#FA5858"/>
<path d="M58.7878 62.4586L58.6531 62.5386L58.6265 62.2453L58.6531 62.0986L58.8131 62.2986L58.7878 62.4586Z" fill="#FA5858"/>
<path d="M87.3331 68.1386C87.2664 68.0319 87.1998 67.9253 87.1331 67.8053L87.1211 67.6186L87.2798 67.7653L87.3331 68.1386Z" fill="#FA5858"/>
<path d="M114.713 205.456C109.291 201.561 104.251 193.336 104.124 184.104C104.4 184.675 104.627 184.983 104.7 185.324C104.937 186.436 105.1 187.565 105.328 188.68C106.125 192.565 107.941 195.976 110.263 199.14C111.572 200.924 112.932 202.669 114.247 204.449C114.461 204.739 114.897 204.964 114.713 205.456Z" fill="#FA5858"/>
</svg>
