<svg width="467" height="467" viewBox="0 0 467 467" fill="none" xmlns="http://www.w3.org/2000/svg">
<path d="M179.293 109.52L201.427 57.0401C216 22.4667 249.867 -3.5944e-05 287.373 -3.5944e-05L265.253 52.48C250.68 87.04 216.813 109.52 179.293 109.52Z" fill="white"/>
<path d="M179.293 466.667L201.427 414.187C216 379.613 249.867 357.147 287.373 357.147L265.253 409.627C250.68 444.187 216.813 466.667 179.293 466.667Z" fill="#6A6D75"/>
<path d="M466.667 287.373L414.187 265.24C379.627 250.667 357.147 216.8 357.147 179.293L409.627 201.413C444.2 216 466.667 249.853 466.667 287.373Z" fill="#383D47"/>
<path d="M109.52 287.373L57.04 265.24C22.48 250.667 0 216.8 0 179.293L52.4801 201.413C87.0534 216 109.52 249.853 109.52 287.373Z" fill="#B4B6BA"/>
<path d="M348.653 134.893C324.373 134.893 300.52 125.413 282.68 107.56L335.427 86.1068C346.813 81.4802 358.733 79.2268 370.56 79.2268C394.853 79.2268 418.707 88.7068 436.547 106.547L383.787 128.013C372.413 132.64 360.48 134.893 348.653 134.893Z" fill="#1F2530"/>
<path d="M96.1203 387.427C71.8269 387.427 47.9735 377.947 30.1335 360.107L82.8936 338.64C94.2669 334.014 106.2 331.774 118.027 331.774C142.307 331.774 166.16 341.253 184 359.093L131.24 380.56C119.867 385.187 107.934 387.427 96.1203 387.427Z" fill="#83868C"/>
<path d="M360.12 436.533L338.654 383.774C324.52 349.027 332.574 309.2 359.107 282.667L380.56 335.427C394.694 370.173 386.64 410.013 360.12 436.533Z" fill="#51555E"/>
<path d="M107.574 184L86.1204 131.24C71.9737 96.4934 80.027 56.6534 106.56 30.1201L128.027 82.8801C142.16 117.627 134.107 157.467 107.574 184Z" fill="#CDCED1"/>
</svg>
